<svg xmlns="http://www.w3.org/2000/svg" version="1.1" xmlns:xlink="http://www.w3.org/1999/xlink"
    xmlns:svgjs="http://svgjs.dev/svgjs" width="1300" height="400" preserveAspectRatio="none"
    viewBox="0 0 1300 400">
    <g mask="url(&quot;#SvgjsMask1304&quot;)" fill="none">
        <rect width="1300" height="400" x="0" y="0" fill="rgba(98, 218, 211, 1)"></rect>
        <path
            d="M-35.142368415610086 123.37410035512954L48.63181908920554 118.98368122676102 44.24139996083702 35.20949372194539-39.532787543978614 39.59991285031391z"
            fill="rgba(35, 179, 171, 0.65)" class="triangle-float2"></path>
        <path
            d="M1275.819911024417 140.80255488084507L1229.8825507529582 75.19720537416683 1164.27720124628 121.13456564562563 1210.2145615177387 186.73991515230387z"
            fill="rgba(35, 179, 171, 0.65)" class="triangle-float3"></path>
        <path
            d="M217.5414658574947 249.43009681352396L143.58209323871722 313.7219985682358 207.87399499342905 387.68137118701327 281.83336761220653 323.38946943230144z"
            fill="rgba(35, 179, 171, 0.65)" class="triangle-float2"></path>
        <path
            d="M580.406041770833 140.90632058040015L644.362004368197 177.83131280226985 681.2869965900667 113.87535020490593 617.3310339927027 76.95035798303621z"
            fill="rgba(35, 179, 171, 0.65)" class="triangle-float2"></path>
        <path
            d="M805.6751144817149 352.04731732247274L899.0559930530949 279.0901791040844 826.0988548347066 185.7093005327044 732.7179762633266 258.6664387510927z"
            fill="rgba(35, 179, 171, 0.65)" class="triangle-float1"></path>
        <path
            d="M929.0351142150982 279.19327181294636L1043.4209432554417 252.7852223720043 1017.0128938144996 138.39939333166083 902.6270647741562 164.80744277260288z"
            fill="rgba(35, 179, 171, 0.65)" class="triangle-float1"></path>
        <path
            d="M722.092873048281 344.26849753507975L703.0520293316483 246.3118485252137 605.0953803217823 265.35269224184646 624.136224038415 363.3093412517125z"
            fill="rgba(35, 179, 171, 0.65)" class="triangle-float1"></path>
        <path
            d="M1198.7494474515179 386.9855604528665L1258.5779506005883 298.2861568795129 1169.8785470272348 238.45765373044227 1110.0500438781642 327.1570573037959z"
            fill="rgba(35, 179, 171, 0.65)" class="triangle-float2"></path>
        <path
            d="M463.97071000920795 140.01500284547362L426.4769304888052 189.7709288010015 476.23285644433304 227.26470832140427 513.7266359647358 177.5087823658764z"
            fill="rgba(35, 179, 171, 0.65)" class="triangle-float1"></path>
        <path
            d="M1013.2791924954125 415.24574216717156L1054.9535921914437 351.07279418724795 990.7806442115202 309.3983944912167 949.1062445154889 373.5713424711403z"
            fill="rgba(35, 179, 171, 0.65)" class="triangle-float1"></path>
        <path
            d="M355.39153448534637 317.3885404458468L321.71049855648755 251.28578549557207 255.60774360621284 284.96682142443086 289.2887795350716 351.0695763747056z"
            fill="rgba(35, 179, 171, 0.65)" class="triangle-float2"></path>
        <path
            d="M1098.6862609205148 196.71735218074153L1158.0669948380373 291.7463910287518 1253.0960336860476 232.36565711122918 1193.715299768525 137.3366182632189z"
            fill="rgba(35, 179, 171, 0.65)" class="triangle-float1"></path>
        <path
            d="M434.0020162932522 304.56595169858304L503.58533142843606 331.27648381751555 530.2958635473686 261.6931686823317 460.71254841218473 234.98263656339918z"
            fill="rgba(35, 179, 171, 0.65)" class="triangle-float3"></path>
        <path
            d="M1022.7988944180145 135.08826468651688L1062.6057145639415 53.47218842026629 980.989638297691 13.665368274339158 941.1828181517639 95.28144454058975z"
            fill="rgba(35, 179, 171, 0.65)" class="triangle-float2"></path>
        <path
            d="M940.1420093649177 210.77959007515153L1006.0797956326786 129.35320530487766 924.6534108624048 63.41541903711675 858.7156245946438 144.84180380739062z"
            fill="rgba(35, 179, 171, 0.65)" class="triangle-float3"></path>
        <path
            d="M162.93379602605654 133.48056161154827L220.1068665431536 194.79117349011787 281.4174784217232 137.61810297302083 224.24440790462614 76.30749109445122z"
            fill="rgba(35, 179, 171, 0.65)" class="triangle-float1"></path>
        <path
            d="M416.16604304839205 140.2753808217763L516.383725623109 165.26245546770227 541.3708002690348 65.0447728929854 441.153117694318 40.05769824705945z"
            fill="rgba(35, 179, 171, 0.65)" class="triangle-float1"></path>
        <path
            d="M1203.8352479276443 413.2640032637736L1282.4132927307614 399.4085738736655 1268.5578633406533 320.8305290705483 1189.9798185375362 334.6859584606565z"
            fill="rgba(35, 179, 171, 0.65)" class="triangle-float1"></path>
    </g>
    <defs>
        <mask id="SvgjsMask1304">
            <rect width="1300" height="400" fill="#ffffff"></rect>
        </mask>
        <style>
            @keyframes float1 {
            0%{transform: translate(0, 0)}
            50%{transform: translate(-10px, 0)}
            100%{transform: translate(0, 0)}
            }

            .triangle-float1 {
            animation: float1 5s infinite;
            }

            @keyframes float2 {
            0%{transform: translate(0, 0)}
            50%{transform: translate(-5px, -5px)}
            100%{transform: translate(0, 0)}
            }

            .triangle-float2 {
            animation: float2 4s infinite;
            }

            @keyframes float3 {
            0%{transform: translate(0, 0)}
            50%{transform: translate(0, -10px)}
            100%{transform: translate(0, 0)}
            }

            .triangle-float3 {
            animation: float3 6s infinite;
            }
        </style>
    </defs>
</svg>