<svg xmlns="http://www.w3.org/2000/svg" version="1.1" xmlns:xlink="http://www.w3.org/1999/xlink"
    xmlns:svgjs="http://svgjs.dev/svgjs" width="1200" height="600" preserveAspectRatio="none"
    viewBox="0 0 1200 600">
    <g mask="url(&quot;#SvgjsMask1473&quot;)" fill="none">
        <rect width="1200" height="600" x="0" y="0" fill="rgba(39, 159, 152, 1)"></rect>
        <path
            d="M781.9054261595982 356.5201076040376L643.2759891280873 436.5578503917867 723.3137319158363 575.1872874232977 861.9431689473473 495.1495446355485z"
            fill="rgba(98, 218, 211, 0.25)" class="triangle-float1"></path>
        <path
            d="M1184.0620973059074 640.6577355631814L1184.0620973059074 466.72757937162413 1010.1319411143501 466.7275793716242 1010.1319411143502 640.6577355631814z"
            fill="rgba(98, 218, 211, 0.25)" class="triangle-float2"></path>
        <path
            d="M527.6342868591794 256.2849108945437L638.5564732341584 220.24410779209572 602.5156701317103 109.32192141711678 491.5934837567314 145.36272451956478z"
            fill="rgba(98, 218, 211, 0.25)" class="triangle-float3"></path>
        <path
            d="M173.39493219749187 555.6130990337102L283.4170775809128 475.6773313902662 203.48130993746878 365.65518600684527 93.45916455404786 445.5909536502893z"
            fill="rgba(98, 218, 211, 0.25)" class="triangle-float2"></path>
        <path
            d="M407.40160775220016 581.3234084467772L461.37050853267533 507.0415891448285 387.0886892307267 453.0726883643533 333.11978845025146 527.354507666302z"
            fill="rgba(98, 218, 211, 0.25)" class="triangle-float1"></path>
        <path
            d="M758.71196875543 120.39745204274081L814.4756317733928 234.72990454900338 928.8080842796553 178.9662415310406 873.0444212616926 64.63378902477803z"
            fill="rgba(98, 218, 211, 0.25)" class="triangle-float2"></path>
        <path
            d="M1037.534116461066 331.4245716228737L1104.5857370536578 239.13593330093772 1012.2970987317219 172.08431270834592 945.2454781391301 264.3729510302819z"
            fill="rgba(98, 218, 211, 0.25)" class="triangle-float2"></path>
        <path
            d="M679.6367021495143 317.43956594079816L797.5429578638307 285.8466799395697 765.9500718626022 167.94042422525337 648.0438161482858 199.53331022648186z"
            fill="rgba(98, 218, 211, 0.25)" class="triangle-float1"></path>
        <path
            d="M1096.1127383834428 431.67050660799583L976.0718878194049 419.0537048088213 963.4550860202304 539.0945553728592 1083.4959365842683 551.7113571720337z"
            fill="rgba(98, 218, 211, 0.25)" class="triangle-float2"></path>
        <path
            d="M425.48887271594845 119.99940717670842L470.06097687587504 32.521727299966514 382.58329699913315-12.050376859960096 338.01119283920656 75.42730301678182z"
            fill="rgba(98, 218, 211, 0.25)" class="triangle-float1"></path>
        <path
            d="M505.6396485388816 205.23925949961378L423.8356787405211 306.2587491968884 524.8551684377958 388.06271899524893 606.6591382361562 287.0432292979743z"
            fill="rgba(98, 218, 211, 0.25)" class="triangle-float3"></path>
        <path
            d="M1058.6416744131022-8.463329668697911L940.1262351634662-33.65456394041291 914.9350008917511 84.86087530922316 1033.4504401413872 110.05210958093816z"
            fill="rgba(98, 218, 211, 0.25)" class="triangle-float3"></path>
        <path
            d="M856.7257755918146 54.45209023426204L799.4890841226036 220.6795122013196 965.7165060896612 277.9162036705306 1022.9531975588721 111.68878170347303z"
            fill="rgba(98, 218, 211, 0.25)" class="triangle-float2"></path>
        <path
            d="M775.6309375283132 362.02461141278775L750.2933040552219 522.000133131799 910.2688257742332 547.3377666048902 935.6064592473244 387.362244885879z"
            fill="rgba(98, 218, 211, 0.25)" class="triangle-float2"></path>
        <path
            d="M208.33993016125387 139.2488739355469L250.1935929250955 53.43614838667804 164.38086737622663 11.58248562283643 122.52720461238502 97.39521117170528z"
            fill="rgba(98, 218, 211, 0.25)" class="triangle-float1"></path>
        <path
            d="M547.4974120153049 426.2381381010103L627.4670922686415 570.5072602518158 771.736214419447 490.53757999847915 691.7665341661104 346.2684578476737z"
            fill="rgba(98, 218, 211, 0.25)" class="triangle-float1"></path>
        <path
            d="M620.1910898546475 167.7612659190866L709.6368981931081 316.6240895190433 858.4997217930647 227.17828118058276 769.0539134546043 78.31545758062605z"
            fill="rgba(98, 218, 211, 0.25)" class="triangle-float1"></path>
        <path
            d="M510.53861270247825 571.6950482127764L585.7990296294072 658.2722541597968 672.3762355764275 583.0118372328678 597.1158186494986 496.4346312858475z"
            fill="rgba(98, 218, 211, 0.25)" class="triangle-float1"></path>
        <path
            d="M90.19866233925342 132.0434430414689L119.3746587891897 30.294651608509966 17.62586735623077 1.118655158573688-11.550129093705507 102.86744659153261z"
            fill="rgba(98, 218, 211, 0.25)" class="triangle-float3"></path>
        <path
            d="M381.1204519293723 86.68867155587145L255.41275061284068 181.41621901205622 350.14029806902545 307.1239203285878 475.84799938555705 212.39637287240305z"
            fill="rgba(98, 218, 211, 0.25)" class="triangle-float3"></path>
    </g>
    <defs>
        <mask id="SvgjsMask1473">
            <rect width="1200" height="600" fill="#ffffff"></rect>
        </mask>
        <style>
            @keyframes float1 {
            0%{transform: translate(0, 0)}
            50%{transform: translate(-10px, 0)}
            100%{transform: translate(0, 0)}
            }

            .triangle-float1 {
            animation: float1 5s infinite;
            }

            @keyframes float2 {
            0%{transform: translate(0, 0)}
            50%{transform: translate(-5px, -5px)}
            100%{transform: translate(0, 0)}
            }

            .triangle-float2 {
            animation: float2 4s infinite;
            }

            @keyframes float3 {
            0%{transform: translate(0, 0)}
            50%{transform: translate(0, -10px)}
            100%{transform: translate(0, 0)}
            }

            .triangle-float3 {
            animation: float3 6s infinite;
            }
        </style>
    </defs>
</svg>