<?xml version="1.0" standalone="no"?>
<!DOCTYPE svg PUBLIC "-//W3C//DTD SVG 20010904//EN"
 "http://www.w3.org/TR/2001/REC-SVG-20010904/DTD/svg10.dtd">
<svg version="1.0" xmlns="http://www.w3.org/2000/svg"
 width="512.000000pt" height="512.000000pt" viewBox="0 0 512.000000 512.000000"
 preserveAspectRatio="xMidYMid meet">
<metadata>
Created by potrace 1.14, written by Peter Selinger 2001-2017
</metadata>
<g transform="translate(0.000000,512.000000) scale(0.100000,-0.100000)"
fill="#000000" stroke="none">
<path d="M2502 5095 c-58 -49 -51 -129 15 -160 93 -45 177 55 122 143 -28 45
-94 53 -137 17z"/>
<path d="M3075 4882 c-16 -11 -67 -58 -112 -105 -77 -80 -83 -90 -83 -128 0
-33 6 -47 31 -70 58 -54 97 -40 217 82 89 89 98 105 93 159 -5 61 -90 97 -146
62z"/>
<path d="M1926 4864 c-14 -15 -26 -32 -27 -38 0 -6 -2 -20 -4 -30 -6 -32 19
-67 114 -159 74 -72 96 -87 122 -87 42 0 86 28 98 62 19 54 3 83 -97 183 -90
90 -98 95 -138 95 -31 0 -48 -6 -68 -26z"/>
<path d="M743 4849 c-47 -14 -69 -48 -72 -113 -4 -114 64 -175 148 -132 36 19
51 55 51 126 0 51 -4 64 -27 89 -33 35 -57 42 -100 30z"/>
<path d="M4301 4844 c-43 -18 -61 -64 -56 -140 4 -50 9 -63 35 -86 17 -16 42
-28 56 -28 34 0 81 25 95 52 15 28 15 120 0 157 -20 46 -79 67 -130 45z"/>
<path d="M2514 4725 c-17 -9 -36 -26 -42 -39 -15 -32 -16 -320 -1 -348 33 -65
108 -78 158 -28 l30 31 -2 169 c-2 166 -3 170 -27 195 -33 32 -77 40 -116 20z"/>
<path d="M448 4569 c-26 -10 -33 -20 -48 -70 -11 -36 12 -84 49 -103 35 -18
104 -21 149 -5 80 28 83 138 5 178 -26 13 -118 13 -155 0z"/>
<path d="M928 4563 c-40 -25 -54 -65 -39 -112 15 -53 61 -75 144 -69 52 4 64
9 88 36 35 39 33 92 -5 131 -22 21 -36 26 -93 28 -52 3 -75 -1 -95 -14z"/>
<path d="M4033 4573 c-60 -12 -83 -111 -37 -160 24 -26 31 -28 106 -28 75 0
81 2 104 28 35 41 33 100 -5 136 -25 23 -39 28 -88 28 -32 0 -68 -1 -80 -4z"/>
<path d="M4515 4571 c-63 -27 -80 -111 -32 -158 21 -21 38 -28 87 -31 72 -5
110 8 134 49 23 39 14 90 -20 122 -21 19 -37 24 -87 25 -34 1 -71 -3 -82 -7z"/>
<path d="M723 4358 c-69 -33 -70 -202 -2 -239 42 -22 91 -14 121 20 24 27 28
40 28 92 0 33 -5 70 -11 82 -26 51 -84 70 -136 45z"/>
<path d="M4275 4340 c-19 -20 -27 -40 -30 -78 -7 -99 25 -152 95 -154 61 -2
98 37 101 107 4 77 -1 97 -32 126 -41 39 -97 38 -134 -1z"/>
<path d="M2435 4055 c-205 -30 -391 -131 -529 -286 -70 -77 -136 -187 -168
-274 l-22 -62 -69 58 c-136 114 -290 166 -467 156 -275 -15 -499 -188 -586
-454 l-29 -88 0 -290 c0 -159 4 -308 9 -330 30 -148 126 -297 254 -394 42 -32
42 -33 42 -97 0 -58 -2 -64 -22 -69 -13 -3 -102 -25 -198 -49 -96 -23 -204
-56 -239 -71 -191 -86 -341 -267 -390 -472 -17 -69 -19 -123 -20 -458 -1 -246
2 -391 9 -411 22 -64 24 -64 479 -64 l411 0 0 -161 c0 -179 8 -210 63 -229 46
-16 1145 -13 1177 3 14 7 33 29 43 50 l19 37 127 0 127 0 13 -36 c15 -41 63
-68 108 -60 33 6 71 42 75 70 3 20 9 21 114 24 l112 3 11 -31 c6 -17 21 -40
33 -50 22 -18 50 -19 626 -19 l602 -1 33 29 32 29 2 129 c1 70 2 147 3 171 l0
42 411 0 c455 0 457 0 479 64 7 20 10 164 9 411 -1 336 -3 389 -20 459 -37
153 -119 280 -254 391 -67 55 -188 105 -355 146 -91 22 -182 45 -202 50 l-38
10 0 64 c0 63 0 64 43 96 128 100 208 222 247 377 18 69 20 106 17 362 -3 280
-3 286 -30 367 -54 160 -178 306 -319 375 -139 68 -162 73 -328 72 -98 -1
-126 -5 -189 -27 -93 -34 -147 -65 -226 -132 l-62 -53 -13 41 c-42 140 -142
283 -277 394 -191 156 -434 224 -678 188z m-616 -1856 c41 -71 154 -191 234
-248 l57 -42 0 -69 c0 -39 -2 -70 -4 -70 -2 0 -33 14 -68 30 -55 26 -203 70
-288 86 -24 5 -55 12 -140 34 l-40 11 0 63 0 63 58 46 c31 26 77 71 101 102
24 30 47 55 50 55 3 0 21 -28 40 -61z m1589 -17 c15 -18 53 -53 85 -79 l57
-46 0 -63 0 -63 -42 -11 c-24 -6 -50 -13 -58 -15 -8 -2 -26 -6 -40 -9 -101
-20 -272 -70 -327 -95 -36 -17 -67 -31 -69 -31 -2 0 -4 31 -4 69 l0 70 65 46
c78 56 173 158 228 244 l41 64 19 -24 c10 -13 31 -39 45 -57z"/>
</g>
</svg>
