<svg xmlns="http://www.w3.org/2000/svg" version="1.1" xmlns:xlink="http://www.w3.org/1999/xlink" xmlns:svgjs="http://svgjs.dev/svgjs" width="1200" height="600" preserveAspectRatio="none" viewBox="0 0 1200 600">
    <g mask="url(&quot;#SvgjsMask1078&quot;)" fill="none">
        <rect width="1200" height="600" x="0" y="0" fill="rgba(121, 217, 211, 1)"></rect>
        <path d="M757.7886060855084 250.94569976050326L836.9670747239059 197.5391483133631 783.5605232767657 118.36067967496564 704.3820546383682 171.76723112210578z" fill="rgba(43, 159, 152, 0.42)" class="triangle-float1"></path>
        <path d="M373.7336783415974 240.7387414632603L278.93128962515885 269.7227403694459 307.91528853134446 364.52512908588443 402.71767724778294 335.5411301796988z" fill="rgba(43, 159, 152, 0.42)" class="triangle-float2"></path>
        <path d="M639.7450357492019 290.36289406525566L487.98093354353614 241.05174807753102 438.66978755581147 392.8158502831967 590.4338897614772 442.1269962709214z" fill="rgba(43, 159, 152, 0.42)" class="triangle-float1"></path>
        <path d="M701.7197217456524 184.63536473959428L808.334967510549 175.30773937613554 799.0073421470902 68.69249361123889 692.3920963821936 78.02011897469764z" fill="rgba(43, 159, 152, 0.42)" class="triangle-float1"></path>
        <path d="M801.7779304299435 94.99249854675315L892.8747136763983 139.42336844956978 937.305583579215 48.32658520311491 846.2088003327601 3.895715300298278z" fill="rgba(43, 159, 152, 0.42)" class="triangle-float2"></path>
        <path d="M1107.837052273643 536.1792772869283L1166.4986039072157 442.3011706805971 1072.6204973008846 383.63961904702427 1013.9589456673118 477.5177256533554z" fill="rgba(43, 159, 152, 0.42)" class="triangle-float3"></path>
        <path d="M671.6245986160949 352.6474543886933L847.5730826145298 340.34393783638893 835.2695660622254 164.39545383795405 659.3210820637905 176.6989703902584z" fill="rgba(43, 159, 152, 0.42)" class="triangle-float3"></path>
        <path d="M249.81446393655648 146.94467796749535L372.27573511288256 269.40594914382143 494.73700628920864 146.9446779674953 372.27573511288256 24.483406791169244z" fill="rgba(43, 159, 152, 0.42)" class="triangle-float1"></path>
        <path d="M1044.093286780753 66.16955484110719L1155.7535859727132 89.90368411239608 1179.487715244002-21.756615079563986 1067.8274160520418-45.49074435085288z" fill="rgba(43, 159, 152, 0.42)" class="triangle-float2"></path>
        <path d="M109.18839277556435 21.193725185249136L5.922369368380544-38.4269412270306-53.6982970438992 64.83908218015321 49.56772636328461 124.45974859243294z" fill="rgba(43, 159, 152, 0.42)" class="triangle-float2"></path>
        <path d="M959.8823791162665 67.73401431190196L997.7568202537217 231.78624235078428 1161.809048292604 193.91180121332906 1123.9346071551488 29.85957317444675z" fill="rgba(43, 159, 152, 0.42)" class="triangle-float2"></path>
        <path d="M59.81920536565371 237.44218047592014L160.00009899377048 244.44751098498628 167.00542950283662 144.2666173568695 66.82453587471984 137.26128684780338z" fill="rgba(43, 159, 152, 0.42)" class="triangle-float1"></path>
        <path d="M1111.9725723926015 495.0744074491123L1206.8492720082384 448.799949150992 1160.5748137101182 353.92324953535507 1065.698114094481 400.19770783347536z" fill="rgba(43, 159, 152, 0.42)" class="triangle-float1"></path>
        <path d="M13.700605162809556 547.8870006107804L106.00987391983732 506.78826624029665 64.91113954935354 414.47899748326887-27.398129207674234 455.57773185375265z" fill="rgba(43, 159, 152, 0.42)" class="triangle-float1"></path>
        <path d="M192.71358088262537 596.5760912563449L168.45918653382458 423.9971080721215-4.119796650398797 448.2515024209223 20.13459769840199 620.8304856051457z" fill="rgba(43, 159, 152, 0.42)" class="triangle-float2"></path>
    </g>
    <defs>
        <mask id="SvgjsMask1078">
            <rect width="1200" height="600" fill="#ffffff"></rect>
        </mask>
        <style>
            @keyframes float1 {
                    0%{transform: translate(0, 0)}
                    50%{transform: translate(-10px, 0)}
                    100%{transform: translate(0, 0)}
                }

                .triangle-float1 {
                    animation: float1 5s infinite;
                }

                @keyframes float2 {
                    0%{transform: translate(0, 0)}
                    50%{transform: translate(-5px, -5px)}
                    100%{transform: translate(0, 0)}
                }

                .triangle-float2 {
                    animation: float2 4s infinite;
                }

                @keyframes float3 {
                    0%{transform: translate(0, 0)}
                    50%{transform: translate(0, -10px)}
                    100%{transform: translate(0, 0)}
                }

                .triangle-float3 {
                    animation: float3 6s infinite;
                }
        </style>
    </defs>
</svg>